<svg width="64" height="64" viewBox="0 0 64 64" fill="none" xmlns="http://www.w3.org/2000/svg">
<path d="M44.4748 42.5H19.525C18.8553 42.5 18.2131 42.7371 17.7396 43.159C17.266 43.581 17 44.1533 17 44.75C17 45.3467 17.266 45.919 17.7396 46.341C18.2131 46.7629 18.8553 47 19.525 47H44.4748C45.1445 47 45.7867 46.7629 46.2603 46.341C46.7338 45.919 46.9998 45.3467 46.9998 44.75C46.9998 44.1533 46.7338 43.581 46.2603 43.159C45.7867 42.7371 45.1445 42.5 44.4748 42.5Z" fill="#00BE40"/>
<path d="M33.3341 38.2462V38.8537C33.3321 39.0797 33.2757 39.3017 33.1697 39.5H42.4774C44.0864 37.4758 45.1013 35.027 45.4043 32.4374C45.7073 29.8477 45.2861 27.2233 44.1895 24.8684C43.0929 22.5134 41.3658 20.5244 39.2084 19.1318C37.0509 17.7391 34.5515 17 31.9999 17C29.4483 17 26.9489 17.7391 24.7915 19.1318C22.6341 20.5244 20.907 22.5134 19.8103 24.8684C18.7137 27.2233 18.2925 29.8477 18.5955 32.4374C18.8986 35.027 19.9134 37.4758 21.5225 39.5H30.8175C30.7115 39.3017 30.6551 39.0797 30.6531 38.8537V38.2462C29.7639 37.9553 28.9871 37.3853 28.4331 36.6171C27.8791 35.849 27.5762 34.9219 27.5674 33.9676C27.5674 33.6025 27.7093 33.2524 27.9619 32.9942C28.2145 32.736 28.557 32.591 28.9142 32.591C29.2714 32.591 29.614 32.736 29.8666 32.9942C30.1192 33.2524 30.2611 33.6025 30.2611 33.9676C30.2636 34.3167 30.367 34.6573 30.5583 34.9466C30.7496 35.2358 31.0204 35.4608 31.3364 35.5932C31.6525 35.7256 31.9998 35.7596 32.3347 35.6909C32.6696 35.6221 32.9771 35.4537 33.2187 35.2068C33.4602 34.96 33.6249 34.6456 33.6922 34.3033C33.7595 33.961 33.7262 33.606 33.5966 33.283C33.4671 32.9599 33.247 32.6832 32.964 32.4876C32.6811 32.2921 32.3478 32.1864 32.0062 32.1838C30.9498 32.1897 29.9264 31.8082 29.1217 31.1086C28.317 30.4089 27.7844 29.4375 27.6207 28.3708C27.4569 27.304 27.6729 26.2126 28.2293 25.2947C28.7857 24.3768 29.6457 23.6933 30.6531 23.3682V22.7477C30.6568 22.3844 30.8013 22.0375 31.055 21.783C31.3087 21.5286 31.6508 21.3874 32.0062 21.3905C32.3584 21.3905 32.6962 21.5335 32.9452 21.788C33.1942 22.0425 33.3341 22.3878 33.3341 22.7477V23.3682C34.2243 23.6573 35.0023 24.2269 35.5565 24.9954C36.1108 25.7639 36.4129 26.692 36.4198 27.6467C36.4198 28.0118 36.2779 28.362 36.0253 28.6202C35.7727 28.8783 35.4302 29.0234 35.073 29.0234C34.7158 29.0234 34.3732 28.8783 34.1206 28.6202C33.868 28.362 33.7262 28.0118 33.7262 27.6467C33.7237 27.2965 33.6196 26.9549 33.4271 26.6651C33.2347 26.3753 32.9625 26.1504 32.6449 26.0187C32.3274 25.8871 31.9788 25.8546 31.6432 25.9254C31.3077 25.9963 31.0002 26.1672 30.7596 26.4167C30.5191 26.6661 30.3564 26.9829 30.292 27.3269C30.2276 27.6709 30.2644 28.0267 30.3979 28.3493C30.5313 28.6719 30.7553 28.9468 31.0416 29.1393C31.3279 29.3317 31.6636 29.4331 32.0062 29.4305C33.0605 29.4309 34.0798 29.8168 34.8798 30.5185C35.6798 31.2202 36.2079 32.1914 36.3683 33.2564C36.5287 34.3214 36.3109 35.4099 35.7544 36.3251C35.1979 37.2403 34.3394 37.9217 33.3341 38.2462V38.2462Z" fill="#00BE40"/>
</svg>
