<svg width="298" height="188" viewBox="0 0 298 188" fill="none" xmlns="http://www.w3.org/2000/svg">
<path fill-rule="evenodd" clip-rule="evenodd" d="M148.454 17.3417L11.5901 17.3417L11.5901 49.4282H10.252L10.252 16L149.798 16L287.995 16V49.4282V77.3918V86.7878H286.657V78.7346L286.656 77.3918V50.7711V50.7699L244.304 50.7699V74.1589V127.604V153.224H286.656V126.608H287.995V154.572H288V188L149.792 188H148.455H10.252L10.252 154.572L10.252 126.608H11.59L11.59 153.224L53.9376 153.224V127.604V74.1589L55.0092 74.9691C55.0595 75.0076 55.1092 75.0468 55.1587 75.086L55.2147 75.1302C55.2346 75.1459 55.2546 75.1615 55.2745 75.177V126.586L55.2745 154.567H11.59L11.59 154.572L11.59 186.658H148.455L148.455 133.32V133.318H148.454V133.305C140.022 133.097 132.006 129.59 126.116 123.532C120.226 117.473 116.929 109.344 116.929 100.88C116.929 92.4153 120.226 84.2864 126.116 78.2284C132.007 72.1704 140.023 68.6634 148.455 68.456V68.4448H148.454V17.3417ZM286.656 126.608H270.162V77.3918L286.656 77.3918V78.7346H271.499V125.266H286.656V126.608ZM118.267 100.88C118.267 84.0239 131.749 70.2236 148.455 69.7966V99.3649C148.144 99.4765 147.874 99.682 147.684 99.9531C147.493 100.224 147.391 100.548 147.391 100.88C147.39 101.212 147.492 101.537 147.682 101.809C147.873 102.081 148.142 102.287 148.454 102.398V131.964C131.748 131.538 118.267 117.735 118.267 100.88ZM149.792 102.279V102.279V99.484V99.4694V99.3716V99.357L149.792 69.7955C166.499 70.2225 179.98 84.0262 179.98 100.88C179.98 117.731 166.502 131.534 149.798 131.964V102.396C150.108 102.284 150.375 102.079 150.564 101.809C150.755 101.537 150.856 101.212 150.855 100.88C150.855 100.548 150.753 100.224 150.563 99.9531C150.372 99.682 150.103 99.4765 149.792 99.3649L149.792 99.4829V102.277L149.792 102.396L149.792 102.391V102.279ZM149.111 102.486C149.113 102.486 149.115 102.486 149.118 102.486L149.126 102.487L149.135 102.486L149.139 102.486L149.124 102.485C149.12 102.485 149.115 102.485 149.111 102.486ZM148.981 133.318H149.125H149.126H149.127H149.265L149.127 133.32H149.12L148.981 133.318ZM233.863 115.587C236.053 119.881 239.162 123.637 242.967 126.585V126.586V154.567H286.656V154.572V186.658L149.792 186.658L149.792 133.32L149.792 133.318H149.798V133.305C158.228 133.096 166.242 129.588 172.13 123.532C178.02 117.473 181.317 109.344 181.318 100.88C181.318 92.4151 178.021 84.2859 172.13 78.2277C166.24 72.1695 158.223 68.6623 149.792 68.4549L149.792 68.4448H149.798V17.3417L286.656 17.3417L286.651 49.4282L242.967 49.4282V75.1758C239.163 78.1235 236.054 81.8786 233.863 86.1725C231.558 90.7298 230.356 95.7687 230.356 100.88C230.356 105.991 231.558 111.029 233.863 115.587ZM231.694 100.88C231.694 91.491 235.786 82.8227 242.967 76.8873V124.872C235.786 118.938 231.694 110.269 231.694 100.88ZM55.0137 74.9691L53.9421 74.1589L53.9421 50.7699H11.59V49.4282H55.279L55.279 75.1758C59.0842 78.1235 62.1935 81.8786 64.3843 86.1725C66.689 90.73 67.8901 95.7688 67.8901 100.88C67.8901 105.99 66.689 111.029 64.3843 115.587C62.1938 119.881 59.0845 123.637 55.279 126.585V124.872C62.4607 118.938 66.552 110.269 66.552 100.88C66.552 91.491 62.4607 82.8227 55.279 76.8873L55.279 75.177C55.2403 75.1469 55.2017 75.1165 55.1631 75.0859C55.1136 75.0468 55.064 75.0076 55.0137 74.9691ZM11.59 50.771V49.4282H10.252L10.252 77.3918L10.252 77.3918L10.252 86.7878H11.59V78.7346V77.3918L11.59 50.771ZM26.7472 125.266H11.59V126.608H28.0841L28.0841 77.3918H11.59V78.7346H26.7472L26.7472 125.266ZM10.252 115.87L10.252 88.13L10.252 86.7883H11.59H11.5922L11.5922 117.213L11.59 117.213V125.266V126.608H10.252L10.252 117.213L10.252 117.213L10.252 115.87ZM10.2518 117.213H0L1.3299e-06 86.7883H10.2519V88.1301H1.33805L1.33805 115.87H10.2518V117.213ZM297.252 117.213L287.995 117.213V126.608H286.657V125.266V117.213L286.655 117.213V86.7883H286.656H286.658H287.995L297.252 86.7883V117.213ZM295.914 115.87L287.995 115.87V88.13L295.914 88.1301V115.87ZM39.3572 103.61C39.6748 103.61 39.9854 103.516 40.2496 103.339C40.5138 103.162 40.7197 102.91 40.8414 102.616C40.963 102.321 40.9949 101.997 40.933 101.685C40.8711 101.372 40.7182 101.085 40.4936 100.859C40.269 100.634 39.9828 100.48 39.6712 100.418C39.3597 100.356 39.0368 100.388 38.7433 100.51C38.4499 100.632 38.1992 100.839 38.0228 101.104C37.8465 101.369 37.7525 101.681 37.7527 102C37.753 102.427 37.9222 102.836 38.223 103.138C38.5238 103.44 38.9317 103.61 39.3572 103.61ZM257.997 103.339C258.261 103.516 258.572 103.61 258.889 103.61C259.315 103.61 259.723 103.44 260.024 103.138C260.324 102.836 260.494 102.427 260.494 102C260.494 101.681 260.4 101.369 260.224 101.104C260.047 100.839 259.797 100.632 259.503 100.51C259.21 100.388 258.887 100.356 258.575 100.418C258.264 100.48 257.978 100.634 257.753 100.859C257.528 101.085 257.376 101.372 257.314 101.685C257.252 101.997 257.284 102.321 257.405 102.616C257.527 102.91 257.733 103.162 257.997 103.339Z" fill="#00BE40"/>
<ellipse cx="255.277" cy="90.8064" rx="4.72232" ry="4.74194" fill="#D9EEED"/>
<ellipse cx="171.722" cy="100.742" rx="4.72232" ry="4.74194" fill="#D9EEED"/>
<ellipse cx="79.7648" cy="59.9836" rx="4.72232" ry="4.74194" fill="#D9EEED"/>
<ellipse cx="33.7223" cy="71.8386" rx="4.72232" ry="4.74194" fill="#00BE40"/>
<ellipse cx="89.2096" cy="42.9919" rx="4.72232" ry="4.74194" fill="#00BE40"/>
<ellipse cx="146.664" cy="63.5403" rx="4.72232" ry="4.74194" fill="#D9EEED"/>
<ellipse cx="93.9318" cy="105.032" rx="4.72232" ry="4.74194" fill="#D9EEED"/>
<ellipse cx="171.722" cy="151.742" rx="4.72232" ry="4.74194" fill="#D9EEED"/>
<ellipse cx="189.722" cy="155.742" rx="4.72232" ry="4.74194" fill="#00BE40"/>
<ellipse cx="103.722" cy="159.742" rx="4.72232" ry="4.74194" fill="#00BE40"/>
</svg>
