<svg width="784" height="320" viewBox="0 0 784 320" fill="none" xmlns="http://www.w3.org/2000/svg">
<mask id="mask0_105_42698" style="mask-type:alpha" maskUnits="userSpaceOnUse" x="0" y="0" width="784" height="320">
<path d="M783.5 320H0.5V0H783.5V320Z" fill="#09544F"/>
</mask>
<g mask="url(#mask0_105_42698)">
<path fill-rule="evenodd" clip-rule="evenodd" d="M391.667 4.49468L33.3436 4.49466L33.3436 88.0683H29.8405L29.8405 1.00001L395.188 1.00002L757 1.00005V88.0683V160.903V185.378L783.34 185.378V264.622L757 264.622V289.094V361.929H757.015L757.015 448.997L395.17 448.997H391.67H29.8404L29.8404 361.929L29.8404 289.094L29.8404 264.622L2.99995 264.622L2.99995 185.378L29.8404 185.378V160.903L29.8404 88.0683H33.3434V91.5659L33.3434 160.903V164.401V185.378H33.3493L33.3493 264.622H33.3434L33.3434 285.599V289.094L33.3434 358.42H144.214V291.687V152.483L147.02 154.593L147.094 154.65L147.173 154.711L147.215 154.744C147.28 154.795 147.345 154.846 147.411 154.897L147.474 154.947L147.577 155.028C147.623 155.064 147.669 155.099 147.714 155.134L147.714 289.035V361.917H33.3434L33.3435 361.929L33.3435 445.502H391.67L391.67 306.576V306.57H391.667V306.538C369.593 305.996 348.606 296.86 333.185 281.081C317.764 265.301 309.132 244.127 309.132 222.08C309.132 200.034 317.765 178.861 333.186 163.082C348.607 147.303 369.596 138.169 391.67 137.629V137.6H391.667V4.49468ZM312.635 222.08C312.635 178.178 347.933 142.233 391.67 141.121L391.67 218.115L391.67 218.135C390.855 218.426 390.15 218.961 389.652 219.667C389.153 220.374 388.885 221.216 388.885 222.08C388.883 222.947 389.149 223.792 389.648 224.501C390.146 225.209 390.851 225.745 391.667 226.037V303.043C347.931 301.935 312.635 265.982 312.635 222.08ZM393.391 226.264C393.396 226.264 393.401 226.264 393.405 226.265L393.427 226.267L393.45 226.265L393.457 226.264L393.436 226.263L393.42 226.261C393.411 226.262 393.401 226.263 393.391 226.264ZM397.189 219.667C396.69 218.961 395.985 218.426 395.17 218.135L395.17 218.115V141.118C438.911 142.23 474.205 178.183 474.205 222.08C474.205 265.972 438.92 301.924 395.188 303.043V226.031C395.997 225.739 396.697 225.204 397.193 224.501C397.691 223.792 397.958 222.947 397.955 222.08C397.955 221.216 397.687 220.374 397.189 219.667ZM393.049 306.57H393.426H393.427H393.429H393.791L393.567 306.574L393.429 306.576H393.411C393.291 306.574 393.17 306.572 393.049 306.57ZM753.497 164.401V185.378H753.494V264.622H753.497V285.599H713.814V164.401H753.497ZM757 188.872L757 261.125L779.837 261.125V188.872L757 188.872ZM753.497 91.5659V160.903H710.314V289.094H753.497V358.42H642.615V291.687L642.615 152.483V91.563L753.497 91.563V91.5659ZM639.114 361.917V289.035V289.032C629.152 281.354 621.013 271.573 615.279 260.387C609.243 248.517 606.097 235.393 606.097 222.08C606.097 208.768 609.243 195.644 615.279 183.774C621.014 172.59 629.153 162.809 639.114 155.131V88.0683L753.482 88.0683L753.497 4.49471L395.188 4.49469V137.6H395.17V137.626C417.245 138.166 438.234 147.301 453.655 163.08C469.077 178.86 477.709 200.034 477.708 222.08C477.708 244.127 469.076 265.301 453.655 281.081C438.238 296.856 417.256 305.992 395.188 306.538V306.57H395.17L395.17 306.576L395.17 445.502L753.497 445.502V361.929V361.917H639.114ZM639.114 159.589V284.572C620.312 269.115 609.6 246.537 609.6 222.08C609.6 197.627 620.312 175.049 639.114 159.589ZM29.8404 188.872H6.5031L6.50309 261.125H29.8404L29.8404 188.872ZM147.031 154.593L144.226 152.483V91.563H33.3436V88.0683H147.726L147.726 155.131C157.688 162.809 165.829 172.59 171.565 183.774C177.599 195.644 180.743 208.769 180.743 222.08C180.743 235.392 177.599 248.517 171.565 260.387C165.83 271.573 157.689 281.354 147.726 289.032V284.572C166.528 269.115 177.24 246.537 177.24 222.08C177.24 197.627 166.528 175.049 147.726 159.589L147.726 155.134C147.625 155.056 147.524 154.977 147.422 154.897L147.281 154.786C147.199 154.722 147.115 154.657 147.031 154.593ZM73.0267 285.599H33.3435V289.094H76.5268L76.5268 160.903H33.3435V164.401H73.0267V285.599ZM106.041 229.193C106.872 229.193 107.685 228.948 108.377 228.487C109.069 228.026 109.608 227.37 109.927 226.603C110.245 225.836 110.329 224.992 110.167 224.177C110.005 223.363 109.604 222.615 109.016 222.028C108.428 221.441 107.679 221.041 106.863 220.879C106.047 220.717 105.202 220.8 104.434 221.118C103.665 221.437 103.009 221.975 102.547 222.666C102.085 223.356 101.839 224.168 101.84 224.999C101.841 226.111 102.284 227.177 103.071 227.963C103.859 228.75 104.927 229.192 106.041 229.193ZM678.463 228.487C679.155 228.948 679.968 229.193 680.8 229.193C681.914 229.192 682.982 228.75 683.769 227.963C684.557 227.177 685 226.111 685 224.999C685.001 224.168 684.755 223.356 684.293 222.666C683.832 221.975 683.175 221.437 682.407 221.118C681.639 220.8 680.793 220.717 679.977 220.879C679.162 221.041 678.412 221.441 677.824 222.028C677.236 222.615 676.836 223.363 676.674 224.177C676.512 224.992 676.595 225.836 676.914 226.603C677.232 227.37 677.771 228.026 678.463 228.487Z" fill="#00BE40"/>
<circle cx="668" cy="177" r="12" fill="#D9EEED"/>
<circle cx="449" cy="213" r="12" fill="#D9EEED"/>
<circle cx="222" cy="99" r="12" fill="#D9EEED"/>
<circle cx="105" cy="129" r="12" fill="#00BE40"/>
<circle cx="246" cy="56" r="12" fill="#00BE40"/>
<circle cx="392" cy="108" r="12" fill="#D9EEED"/>
<circle cx="258" cy="213" r="12" fill="#D9EEED"/>
<circle cx="566" cy="186" r="12" fill="#D9EEED"/>
</g>
</svg>
