<svg width="572" height="242" viewBox="0 0 572 242" fill="none" xmlns="http://www.w3.org/2000/svg">
<rect x="0.5" y="213" width="569" height="0.909185" fill="#588B88"/>
<path d="M4.97177 229.273V238H3.3908V230.811H3.33967L1.29847 232.115V230.666L3.46751 229.273H4.97177ZM7.18768 238V236.858L10.2175 233.888C10.5073 233.595 10.7488 233.335 10.9419 233.108C11.1351 232.881 11.28 232.661 11.3766 232.447C11.4732 232.234 11.5215 232.007 11.5215 231.766C11.5215 231.49 11.459 231.254 11.334 231.058C11.209 230.859 11.0371 230.706 10.8184 230.598C10.5996 230.49 10.351 230.436 10.0726 230.436C9.78569 230.436 9.53427 230.496 9.31836 230.615C9.10245 230.732 8.93484 230.898 8.81552 231.114C8.69904 231.33 8.6408 231.587 8.6408 231.885H7.13654C7.13654 231.331 7.26296 230.849 7.5158 230.44C7.76864 230.031 8.11665 229.714 8.55984 229.49C9.00586 229.266 9.51722 229.153 10.0939 229.153C10.6792 229.153 11.1934 229.263 11.6365 229.482C12.0797 229.7 12.4235 230 12.6678 230.381C12.915 230.761 13.0385 231.196 13.0385 231.685C13.0385 232.011 12.976 232.332 12.851 232.648C12.726 232.963 12.5059 233.312 12.1905 233.696C11.878 234.08 11.4391 234.544 10.8738 235.089L9.3695 236.619V236.679H13.1706V238H7.18768ZM15.6081 236.952C15.3496 236.952 15.128 236.861 14.9434 236.679C14.7587 236.494 14.6678 236.273 14.6706 236.014C14.6678 235.759 14.7587 235.54 14.9434 235.358C15.128 235.176 15.3496 235.085 15.6081 235.085C15.8581 235.085 16.0755 235.176 16.2601 235.358C16.4476 235.54 16.5428 235.759 16.5456 236.014C16.5428 236.187 16.4973 236.345 16.4093 236.487C16.324 236.629 16.2104 236.743 16.0684 236.828C15.9292 236.911 15.7757 236.952 15.6081 236.952ZM15.6081 232.626C15.3496 232.626 15.128 232.536 14.9434 232.354C14.7587 232.169 14.6678 231.947 14.6706 231.689C14.6678 231.433 14.7587 231.214 14.9434 231.033C15.128 230.848 15.3496 230.756 15.6081 230.756C15.8581 230.756 16.0755 230.848 16.2601 231.033C16.4476 231.214 16.5428 231.433 16.5456 231.689C16.5428 231.859 16.4973 232.016 16.4093 232.158C16.324 232.3 16.2104 232.413 16.0684 232.499C15.9292 232.584 15.7757 232.626 15.6081 232.626ZM21.3471 238.166C20.6454 238.166 20.0431 237.989 19.5403 237.634C19.0403 237.276 18.6554 236.76 18.3855 236.087C18.1184 235.411 17.9849 234.597 17.9849 233.645C17.9877 232.693 18.1227 231.884 18.3897 231.216C18.6596 230.545 19.0446 230.034 19.5446 229.682C20.0474 229.33 20.6483 229.153 21.3471 229.153C22.046 229.153 22.6468 229.33 23.1497 229.682C23.6525 230.034 24.0375 230.545 24.3045 231.216C24.5744 231.886 24.7093 232.696 24.7093 233.645C24.7093 234.599 24.5744 235.415 24.3045 236.091C24.0375 236.764 23.6525 237.278 23.1497 237.634C22.6497 237.989 22.0488 238.166 21.3471 238.166ZM21.3471 236.832C21.8926 236.832 22.323 236.564 22.6383 236.027C22.9565 235.487 23.1156 234.693 23.1156 233.645C23.1156 232.952 23.0431 232.369 22.8983 231.898C22.7534 231.426 22.5488 231.071 22.2846 230.832C22.0204 230.591 21.7079 230.47 21.3471 230.47C20.8045 230.47 20.3755 230.74 20.0602 231.28C19.7449 231.817 19.5858 232.605 19.5829 233.645C19.5801 234.341 19.6497 234.926 19.7917 235.401C19.9366 235.875 20.1412 236.233 20.4054 236.474C20.6696 236.713 20.9835 236.832 21.3471 236.832ZM29.351 238.166C28.6493 238.166 28.0471 237.989 27.5442 237.634C27.0442 237.276 26.6593 236.76 26.3894 236.087C26.1223 235.411 25.9888 234.597 25.9888 233.645C25.9917 232.693 26.1266 231.884 26.3936 231.216C26.6635 230.545 27.0485 230.034 27.5485 229.682C28.0513 229.33 28.6522 229.153 29.351 229.153C30.0499 229.153 30.6507 229.33 31.1536 229.682C31.6564 230.034 32.0414 230.545 32.3084 231.216C32.5783 231.886 32.7132 232.696 32.7132 233.645C32.7132 234.599 32.5783 235.415 32.3084 236.091C32.0414 236.764 31.6564 237.278 31.1536 237.634C30.6536 237.989 30.0527 238.166 29.351 238.166ZM29.351 236.832C29.8965 236.832 30.3269 236.564 30.6422 236.027C30.9604 235.487 31.1195 234.693 31.1195 233.645C31.1195 232.952 31.0471 232.369 30.9022 231.898C30.7573 231.426 30.5527 231.071 30.2885 230.832C30.0243 230.591 29.7118 230.47 29.351 230.47C28.8084 230.47 28.3794 230.74 28.0641 231.28C27.7488 231.817 27.5897 232.605 27.5868 233.645C27.584 234.341 27.6536 234.926 27.7956 235.401C27.9405 235.875 28.1451 236.233 28.4093 236.474C28.6735 236.713 28.9874 236.832 29.351 236.832Z" fill="white"/>
<path d="M151.505 238.119C150.871 238.119 150.309 238.013 149.817 237.8C149.329 237.587 148.945 237.295 148.667 236.926C148.391 236.554 148.255 236.132 148.258 235.661C148.255 235.294 148.334 234.957 148.496 234.651C148.658 234.344 148.877 234.088 149.153 233.884C149.431 233.676 149.741 233.544 150.081 233.487V233.428C149.633 233.328 149.269 233.099 148.991 232.741C148.715 232.381 148.579 231.964 148.581 231.493C148.579 231.044 148.704 230.643 148.956 230.291C149.209 229.939 149.556 229.662 149.996 229.46C150.437 229.256 150.939 229.153 151.505 229.153C152.064 229.153 152.563 229.256 153.001 229.46C153.441 229.662 153.787 229.939 154.04 230.291C154.296 230.643 154.424 231.044 154.424 231.493C154.424 231.964 154.283 232.381 154.002 232.741C153.724 233.099 153.364 233.328 152.924 233.428V233.487C153.265 233.544 153.572 233.676 153.844 233.884C154.12 234.088 154.339 234.344 154.501 234.651C154.665 234.957 154.748 235.294 154.748 235.661C154.748 236.132 154.608 236.554 154.33 236.926C154.052 237.295 153.668 237.587 153.18 237.8C152.694 238.013 152.135 238.119 151.505 238.119ZM151.505 236.901C151.831 236.901 152.116 236.845 152.357 236.734C152.599 236.621 152.786 236.462 152.92 236.257C153.053 236.053 153.121 235.817 153.124 235.55C153.121 235.271 153.049 235.026 152.907 234.812C152.768 234.597 152.576 234.428 152.331 234.305C152.09 234.183 151.814 234.122 151.505 234.122C151.192 234.122 150.914 234.183 150.67 234.305C150.425 234.428 150.232 234.597 150.09 234.812C149.951 235.026 149.883 235.271 149.885 235.55C149.883 235.817 149.948 236.053 150.081 236.257C150.215 236.459 150.403 236.616 150.644 236.73C150.888 236.844 151.175 236.901 151.505 236.901ZM151.505 232.925C151.772 232.925 152.008 232.871 152.212 232.763C152.42 232.655 152.583 232.504 152.702 232.311C152.822 232.118 152.883 231.895 152.885 231.642C152.883 231.392 152.823 231.173 152.706 230.986C152.59 230.795 152.428 230.649 152.221 230.547C152.013 230.442 151.775 230.389 151.505 230.389C151.229 230.389 150.986 230.442 150.776 230.547C150.569 230.649 150.407 230.795 150.29 230.986C150.177 231.173 150.121 231.392 150.124 231.642C150.121 231.895 150.178 232.118 150.295 232.311C150.414 232.501 150.577 232.652 150.785 232.763C150.995 232.871 151.235 232.925 151.505 232.925Z" fill="white"/>
<path d="M273.972 229.273V238H272.391V230.811H272.34L270.298 232.115V230.666L272.468 229.273H273.972ZM276.188 238V236.858L279.218 233.888C279.507 233.595 279.749 233.335 279.942 233.108C280.135 232.881 280.28 232.661 280.377 232.447C280.473 232.234 280.521 232.007 280.521 231.766C280.521 231.49 280.459 231.254 280.334 231.058C280.209 230.859 280.037 230.706 279.818 230.598C279.6 230.49 279.351 230.436 279.073 230.436C278.786 230.436 278.534 230.496 278.318 230.615C278.102 230.732 277.935 230.898 277.816 231.114C277.699 231.33 277.641 231.587 277.641 231.885H276.137C276.137 231.331 276.263 230.849 276.516 230.44C276.769 230.031 277.117 229.714 277.56 229.49C278.006 229.266 278.517 229.153 279.094 229.153C279.679 229.153 280.193 229.263 280.637 229.482C281.08 229.7 281.423 230 281.668 230.381C281.915 230.761 282.039 231.196 282.039 231.685C282.039 232.011 281.976 232.332 281.851 232.648C281.726 232.963 281.506 233.312 281.191 233.696C280.878 234.08 280.439 234.544 279.874 235.089L278.369 236.619V236.679H282.171V238H276.188ZM284.608 236.952C284.35 236.952 284.128 236.861 283.943 236.679C283.759 236.494 283.668 236.273 283.671 236.014C283.668 235.759 283.759 235.54 283.943 235.358C284.128 235.176 284.35 235.085 284.608 235.085C284.858 235.085 285.075 235.176 285.26 235.358C285.448 235.54 285.543 235.759 285.546 236.014C285.543 236.187 285.497 236.345 285.409 236.487C285.324 236.629 285.21 236.743 285.068 236.828C284.929 236.911 284.776 236.952 284.608 236.952ZM284.608 232.626C284.35 232.626 284.128 232.536 283.943 232.354C283.759 232.169 283.668 231.947 283.671 231.689C283.668 231.433 283.759 231.214 283.943 231.033C284.128 230.848 284.35 230.756 284.608 230.756C284.858 230.756 285.075 230.848 285.26 231.033C285.448 231.214 285.543 231.433 285.546 231.689C285.543 231.859 285.497 232.016 285.409 232.158C285.324 232.3 285.21 232.413 285.068 232.499C284.929 232.584 284.776 232.626 284.608 232.626ZM290.347 238.166C289.645 238.166 289.043 237.989 288.54 237.634C288.04 237.276 287.655 236.76 287.385 236.087C287.118 235.411 286.985 234.597 286.985 233.645C286.988 232.693 287.123 231.884 287.39 231.216C287.66 230.545 288.045 230.034 288.545 229.682C289.047 229.33 289.648 229.153 290.347 229.153C291.046 229.153 291.647 229.33 292.15 229.682C292.653 230.034 293.037 230.545 293.305 231.216C293.574 231.886 293.709 232.696 293.709 233.645C293.709 234.599 293.574 235.415 293.305 236.091C293.037 236.764 292.653 237.278 292.15 237.634C291.65 237.989 291.049 238.166 290.347 238.166ZM290.347 236.832C290.893 236.832 291.323 236.564 291.638 236.027C291.956 235.487 292.116 234.693 292.116 233.645C292.116 232.952 292.043 232.369 291.898 231.898C291.753 231.426 291.549 231.071 291.285 230.832C291.02 230.591 290.708 230.47 290.347 230.47C289.805 230.47 289.376 230.74 289.06 231.28C288.745 231.817 288.586 232.605 288.583 233.645C288.58 234.341 288.65 234.926 288.792 235.401C288.937 235.875 289.141 236.233 289.405 236.474C289.67 236.713 289.983 236.832 290.347 236.832ZM298.351 238.166C297.649 238.166 297.047 237.989 296.544 237.634C296.044 237.276 295.659 236.76 295.389 236.087C295.122 235.411 294.989 234.597 294.989 233.645C294.992 232.693 295.127 231.884 295.394 231.216C295.664 230.545 296.048 230.034 296.548 229.682C297.051 229.33 297.652 229.153 298.351 229.153C299.05 229.153 299.651 229.33 300.154 229.682C300.656 230.034 301.041 230.545 301.308 231.216C301.578 231.886 301.713 232.696 301.713 233.645C301.713 234.599 301.578 235.415 301.308 236.091C301.041 236.764 300.656 237.278 300.154 237.634C299.654 237.989 299.053 238.166 298.351 238.166ZM298.351 236.832C298.896 236.832 299.327 236.564 299.642 236.027C299.96 235.487 300.119 234.693 300.119 233.645C300.119 232.952 300.047 232.369 299.902 231.898C299.757 231.426 299.553 231.071 299.289 230.832C299.024 230.591 298.712 230.47 298.351 230.47C297.808 230.47 297.379 230.74 297.064 231.28C296.749 231.817 296.59 232.605 296.587 233.645C296.584 234.341 296.654 234.926 296.796 235.401C296.941 235.875 297.145 236.233 297.409 236.474C297.673 236.713 297.987 236.832 298.351 236.832Z" fill="white"/>
<path d="M420.415 229.153C420.832 229.156 421.239 229.23 421.634 229.375C422.031 229.517 422.389 229.75 422.707 230.074C423.026 230.395 423.278 230.825 423.466 231.365C423.653 231.905 423.747 232.572 423.747 233.368C423.75 234.118 423.67 234.788 423.509 235.379C423.349 235.967 423.121 236.464 422.822 236.871C422.524 237.277 422.165 237.587 421.744 237.8C421.324 238.013 420.851 238.119 420.325 238.119C419.774 238.119 419.286 238.011 418.859 237.795C418.436 237.58 418.094 237.284 417.832 236.909C417.571 236.534 417.411 236.105 417.351 235.622H418.906C418.986 235.969 419.148 236.244 419.392 236.449C419.639 236.651 419.95 236.751 420.325 236.751C420.93 236.751 421.396 236.489 421.723 235.963C422.05 235.437 422.213 234.707 422.213 233.773H422.153C422.014 234.023 421.834 234.239 421.612 234.42C421.391 234.599 421.139 234.737 420.858 234.834C420.58 234.93 420.284 234.979 419.972 234.979C419.46 234.979 419 234.857 418.591 234.612C418.185 234.368 417.862 234.033 417.624 233.607C417.388 233.18 417.268 232.693 417.266 232.145C417.266 231.577 417.396 231.067 417.658 230.615C417.922 230.161 418.29 229.803 418.761 229.541C419.233 229.277 419.784 229.148 420.415 229.153ZM420.419 230.432C420.112 230.432 419.835 230.507 419.588 230.658C419.344 230.805 419.151 231.007 419.009 231.263C418.869 231.516 418.8 231.798 418.8 232.111C418.803 232.42 418.872 232.702 419.009 232.955C419.148 233.207 419.337 233.408 419.575 233.555C419.817 233.703 420.092 233.777 420.402 233.777C420.632 233.777 420.847 233.733 421.045 233.645C421.244 233.557 421.418 233.435 421.565 233.278C421.716 233.119 421.832 232.939 421.915 232.737C422 232.536 422.041 232.322 422.038 232.098C422.038 231.8 421.967 231.524 421.825 231.271C421.686 231.018 421.494 230.815 421.25 230.662C421.009 230.509 420.732 230.432 420.419 230.432Z" fill="white"/>
<path d="M542.972 229.273V238H541.391V230.811H541.34L539.298 232.115V230.666L541.468 229.273H542.972ZM545.188 238V236.858L548.218 233.888C548.507 233.595 548.749 233.335 548.942 233.108C549.135 232.881 549.28 232.661 549.377 232.447C549.473 232.234 549.521 232.007 549.521 231.766C549.521 231.49 549.459 231.254 549.334 231.058C549.209 230.859 549.037 230.706 548.818 230.598C548.6 230.49 548.351 230.436 548.073 230.436C547.786 230.436 547.534 230.496 547.318 230.615C547.102 230.732 546.935 230.898 546.816 231.114C546.699 231.33 546.641 231.587 546.641 231.885H545.137C545.137 231.331 545.263 230.849 545.516 230.44C545.769 230.031 546.117 229.714 546.56 229.49C547.006 229.266 547.517 229.153 548.094 229.153C548.679 229.153 549.193 229.263 549.637 229.482C550.08 229.7 550.423 230 550.668 230.381C550.915 230.761 551.039 231.196 551.039 231.685C551.039 232.011 550.976 232.332 550.851 232.648C550.726 232.963 550.506 233.312 550.191 233.696C549.878 234.08 549.439 234.544 548.874 235.089L547.369 236.619V236.679H551.171V238H545.188ZM553.608 236.952C553.35 236.952 553.128 236.861 552.943 236.679C552.759 236.494 552.668 236.273 552.671 236.014C552.668 235.759 552.759 235.54 552.943 235.358C553.128 235.176 553.35 235.085 553.608 235.085C553.858 235.085 554.075 235.176 554.26 235.358C554.448 235.54 554.543 235.759 554.546 236.014C554.543 236.187 554.497 236.345 554.409 236.487C554.324 236.629 554.21 236.743 554.068 236.828C553.929 236.911 553.776 236.952 553.608 236.952ZM553.608 232.626C553.35 232.626 553.128 232.536 552.943 232.354C552.759 232.169 552.668 231.947 552.671 231.689C552.668 231.433 552.759 231.214 552.943 231.033C553.128 230.848 553.35 230.756 553.608 230.756C553.858 230.756 554.075 230.848 554.26 231.033C554.448 231.214 554.543 231.433 554.546 231.689C554.543 231.859 554.497 232.016 554.409 232.158C554.324 232.3 554.21 232.413 554.068 232.499C553.929 232.584 553.776 232.626 553.608 232.626ZM559.347 238.166C558.645 238.166 558.043 237.989 557.54 237.634C557.04 237.276 556.655 236.76 556.385 236.087C556.118 235.411 555.985 234.597 555.985 233.645C555.988 232.693 556.123 231.884 556.39 231.216C556.66 230.545 557.045 230.034 557.545 229.682C558.047 229.33 558.648 229.153 559.347 229.153C560.046 229.153 560.647 229.33 561.15 229.682C561.653 230.034 562.037 230.545 562.305 231.216C562.574 231.886 562.709 232.696 562.709 233.645C562.709 234.599 562.574 235.415 562.305 236.091C562.037 236.764 561.653 237.278 561.15 237.634C560.65 237.989 560.049 238.166 559.347 238.166ZM559.347 236.832C559.893 236.832 560.323 236.564 560.638 236.027C560.956 235.487 561.116 234.693 561.116 233.645C561.116 232.952 561.043 232.369 560.898 231.898C560.753 231.426 560.549 231.071 560.285 230.832C560.02 230.591 559.708 230.47 559.347 230.47C558.805 230.47 558.376 230.74 558.06 231.28C557.745 231.817 557.586 232.605 557.583 233.645C557.58 234.341 557.65 234.926 557.792 235.401C557.937 235.875 558.141 236.233 558.405 236.474C558.67 236.713 558.983 236.832 559.347 236.832ZM567.351 238.166C566.649 238.166 566.047 237.989 565.544 237.634C565.044 237.276 564.659 236.76 564.389 236.087C564.122 235.411 563.989 234.597 563.989 233.645C563.992 232.693 564.127 231.884 564.394 231.216C564.664 230.545 565.048 230.034 565.548 229.682C566.051 229.33 566.652 229.153 567.351 229.153C568.05 229.153 568.651 229.33 569.154 229.682C569.656 230.034 570.041 230.545 570.308 231.216C570.578 231.886 570.713 232.696 570.713 233.645C570.713 234.599 570.578 235.415 570.308 236.091C570.041 236.764 569.656 237.278 569.154 237.634C568.654 237.989 568.053 238.166 567.351 238.166ZM567.351 236.832C567.896 236.832 568.327 236.564 568.642 236.027C568.96 235.487 569.119 234.693 569.119 233.645C569.119 232.952 569.047 232.369 568.902 231.898C568.757 231.426 568.553 231.071 568.289 230.832C568.024 230.591 567.712 230.47 567.351 230.47C566.808 230.47 566.379 230.74 566.064 231.28C565.749 231.817 565.59 232.605 565.587 233.645C565.584 234.341 565.654 234.926 565.796 235.401C565.941 235.875 566.145 236.233 566.409 236.474C566.673 236.713 566.987 236.832 567.351 236.832Z" fill="white"/>
</svg>
