<svg width="288" height="188" viewBox="0 0 288 188" fill="none" xmlns="http://www.w3.org/2000/svg">
<rect y="152" width="288" height="1" fill="#588B88"/>
<path d="M4.47177 168.273V177H2.8908V169.811H2.83967L0.798473 171.115V169.666L2.96751 168.273H4.47177ZM6.68768 177V175.858L9.71751 172.888C10.0073 172.595 10.2488 172.335 10.4419 172.108C10.6351 171.881 10.78 171.661 10.8766 171.447C10.9732 171.234 11.0215 171.007 11.0215 170.766C11.0215 170.49 10.959 170.254 10.834 170.058C10.709 169.859 10.5371 169.706 10.3184 169.598C10.0996 169.49 9.85103 169.436 9.57262 169.436C9.28569 169.436 9.03427 169.496 8.81836 169.615C8.60245 169.732 8.43484 169.898 8.31552 170.114C8.19904 170.33 8.1408 170.587 8.1408 170.885H6.63654C6.63654 170.331 6.76296 169.849 7.0158 169.44C7.26864 169.031 7.61665 168.714 8.05984 168.49C8.50586 168.266 9.01722 168.153 9.59393 168.153C10.1792 168.153 10.6934 168.263 11.1365 168.482C11.5797 168.7 11.9235 169 12.1678 169.381C12.415 169.761 12.5385 170.196 12.5385 170.685C12.5385 171.011 12.476 171.332 12.351 171.648C12.226 171.963 12.0059 172.312 11.6905 172.696C11.378 173.08 10.9391 173.544 10.3738 174.089L8.8695 175.619V175.679H12.6706V177H6.68768ZM15.1081 175.952C14.8496 175.952 14.628 175.861 14.4434 175.679C14.2587 175.494 14.1678 175.273 14.1706 175.014C14.1678 174.759 14.2587 174.54 14.4434 174.358C14.628 174.176 14.8496 174.085 15.1081 174.085C15.3581 174.085 15.5755 174.176 15.7601 174.358C15.9476 174.54 16.0428 174.759 16.0456 175.014C16.0428 175.187 15.9973 175.345 15.9093 175.487C15.824 175.629 15.7104 175.743 15.5684 175.828C15.4292 175.911 15.2757 175.952 15.1081 175.952ZM15.1081 171.626C14.8496 171.626 14.628 171.536 14.4434 171.354C14.2587 171.169 14.1678 170.947 14.1706 170.689C14.1678 170.433 14.2587 170.214 14.4434 170.033C14.628 169.848 14.8496 169.756 15.1081 169.756C15.3581 169.756 15.5755 169.848 15.7601 170.033C15.9476 170.214 16.0428 170.433 16.0456 170.689C16.0428 170.859 15.9973 171.016 15.9093 171.158C15.824 171.3 15.7104 171.413 15.5684 171.499C15.4292 171.584 15.2757 171.626 15.1081 171.626ZM20.8471 177.166C20.1454 177.166 19.5431 176.989 19.0403 176.634C18.5403 176.276 18.1554 175.76 17.8855 175.087C17.6184 174.411 17.4849 173.597 17.4849 172.645C17.4877 171.693 17.6227 170.884 17.8897 170.216C18.1596 169.545 18.5446 169.034 19.0446 168.682C19.5474 168.33 20.1483 168.153 20.8471 168.153C21.546 168.153 22.1468 168.33 22.6497 168.682C23.1525 169.034 23.5375 169.545 23.8045 170.216C24.0744 170.886 24.2093 171.696 24.2093 172.645C24.2093 173.599 24.0744 174.415 23.8045 175.091C23.5375 175.764 23.1525 176.278 22.6497 176.634C22.1497 176.989 21.5488 177.166 20.8471 177.166ZM20.8471 175.832C21.3926 175.832 21.823 175.564 22.1383 175.027C22.4565 174.487 22.6156 173.693 22.6156 172.645C22.6156 171.952 22.5431 171.369 22.3983 170.898C22.2534 170.426 22.0488 170.071 21.7846 169.832C21.5204 169.591 21.2079 169.47 20.8471 169.47C20.3045 169.47 19.8755 169.74 19.5602 170.28C19.2449 170.817 19.0858 171.605 19.0829 172.645C19.0801 173.341 19.1497 173.926 19.2917 174.401C19.4366 174.875 19.6412 175.233 19.9054 175.474C20.1696 175.713 20.4835 175.832 20.8471 175.832ZM28.851 177.166C28.1493 177.166 27.5471 176.989 27.0442 176.634C26.5442 176.276 26.1593 175.76 25.8894 175.087C25.6223 174.411 25.4888 173.597 25.4888 172.645C25.4917 171.693 25.6266 170.884 25.8936 170.216C26.1635 169.545 26.5485 169.034 27.0485 168.682C27.5513 168.33 28.1522 168.153 28.851 168.153C29.5499 168.153 30.1507 168.33 30.6536 168.682C31.1564 169.034 31.5414 169.545 31.8084 170.216C32.0783 170.886 32.2132 171.696 32.2132 172.645C32.2132 173.599 32.0783 174.415 31.8084 175.091C31.5414 175.764 31.1564 176.278 30.6536 176.634C30.1536 176.989 29.5527 177.166 28.851 177.166ZM28.851 175.832C29.3965 175.832 29.8269 175.564 30.1422 175.027C30.4604 174.487 30.6195 173.693 30.6195 172.645C30.6195 171.952 30.5471 171.369 30.4022 170.898C30.2573 170.426 30.0527 170.071 29.7885 169.832C29.5243 169.591 29.2118 169.47 28.851 169.47C28.3084 169.47 27.8794 169.74 27.5641 170.28C27.2488 170.817 27.0897 171.605 27.0868 172.645C27.084 173.341 27.1536 173.926 27.2956 174.401C27.4405 174.875 27.6451 175.233 27.9093 175.474C28.1735 175.713 28.4874 175.832 28.851 175.832Z" fill="white"/>
<path d="M80.2548 177.119C79.6213 177.119 79.0588 177.013 78.5673 176.8C78.0787 176.587 77.6951 176.295 77.4167 175.926C77.1412 175.554 77.0048 175.132 77.0076 174.661C77.0048 174.294 77.0843 173.957 77.2463 173.651C77.4082 173.344 77.627 173.088 77.9025 172.884C78.1809 172.676 78.4906 172.544 78.8315 172.487V172.428C78.3826 172.328 78.019 172.099 77.7406 171.741C77.465 171.381 77.3287 170.964 77.3315 170.493C77.3287 170.044 77.4537 169.643 77.7065 169.291C77.9593 168.939 78.3059 168.662 78.7463 168.46C79.1866 168.256 79.6895 168.153 80.2548 168.153C80.8145 168.153 81.313 168.256 81.7505 168.46C82.1909 168.662 82.5375 168.939 82.7903 169.291C83.046 169.643 83.1738 170.044 83.1738 170.493C83.1738 170.964 83.0332 171.381 82.752 171.741C82.4735 172.099 82.1142 172.328 81.6738 172.428V172.487C82.0147 172.544 82.3216 172.676 82.5943 172.884C82.8699 173.088 83.0886 173.344 83.2505 173.651C83.4153 173.957 83.4977 174.294 83.4977 174.661C83.4977 175.132 83.3585 175.554 83.0801 175.926C82.8017 176.295 82.4181 176.587 81.9295 176.8C81.4437 177.013 80.8855 177.119 80.2548 177.119ZM80.2548 175.901C80.5815 175.901 80.8656 175.845 81.1071 175.734C81.3485 175.621 81.536 175.462 81.6696 175.257C81.8031 175.053 81.8713 174.817 81.8741 174.55C81.8713 174.271 81.7988 174.026 81.6568 173.812C81.5176 173.597 81.3258 173.428 81.0815 173.305C80.84 173.183 80.5645 173.122 80.2548 173.122C79.9423 173.122 79.6639 173.183 79.4196 173.305C79.1752 173.428 78.9821 173.597 78.84 173.812C78.7008 174.026 78.6326 174.271 78.6355 174.55C78.6326 174.817 78.698 175.053 78.8315 175.257C78.965 175.459 79.1525 175.616 79.394 175.73C79.6383 175.844 79.9252 175.901 80.2548 175.901ZM80.2548 171.925C80.5218 171.925 80.7576 171.871 80.9622 171.763C81.1696 171.655 81.3329 171.504 81.4522 171.311C81.5716 171.118 81.6326 170.895 81.6355 170.642C81.6326 170.392 81.573 170.173 81.4565 169.986C81.34 169.795 81.1781 169.649 80.9707 169.547C80.7633 169.442 80.5247 169.389 80.2548 169.389C79.9792 169.389 79.7363 169.442 79.5261 169.547C79.3187 169.649 79.1568 169.795 79.0403 169.986C78.9267 170.173 78.8713 170.392 78.8741 170.642C78.8713 170.895 78.9281 171.118 79.0446 171.311C79.1639 171.501 79.3272 171.652 79.5346 171.763C79.7449 171.871 79.9849 171.925 80.2548 171.925Z" fill="white"/>
<path d="M131.972 168.273V177H130.391V169.811H130.34L128.298 171.115V169.666L130.468 168.273H131.972ZM134.188 177V175.858L137.218 172.888C137.507 172.595 137.749 172.335 137.942 172.108C138.135 171.881 138.28 171.661 138.377 171.447C138.473 171.234 138.521 171.007 138.521 170.766C138.521 170.49 138.459 170.254 138.334 170.058C138.209 169.859 138.037 169.706 137.818 169.598C137.6 169.49 137.351 169.436 137.073 169.436C136.786 169.436 136.534 169.496 136.318 169.615C136.102 169.732 135.935 169.898 135.816 170.114C135.699 170.33 135.641 170.587 135.641 170.885H134.137C134.137 170.331 134.263 169.849 134.516 169.44C134.769 169.031 135.117 168.714 135.56 168.49C136.006 168.266 136.517 168.153 137.094 168.153C137.679 168.153 138.193 168.263 138.637 168.482C139.08 168.7 139.423 169 139.668 169.381C139.915 169.761 140.039 170.196 140.039 170.685C140.039 171.011 139.976 171.332 139.851 171.648C139.726 171.963 139.506 172.312 139.191 172.696C138.878 173.08 138.439 173.544 137.874 174.089L136.369 175.619V175.679H140.171V177H134.188ZM142.608 175.952C142.35 175.952 142.128 175.861 141.943 175.679C141.759 175.494 141.668 175.273 141.671 175.014C141.668 174.759 141.759 174.54 141.943 174.358C142.128 174.176 142.35 174.085 142.608 174.085C142.858 174.085 143.075 174.176 143.26 174.358C143.448 174.54 143.543 174.759 143.546 175.014C143.543 175.187 143.497 175.345 143.409 175.487C143.324 175.629 143.21 175.743 143.068 175.828C142.929 175.911 142.776 175.952 142.608 175.952ZM142.608 171.626C142.35 171.626 142.128 171.536 141.943 171.354C141.759 171.169 141.668 170.947 141.671 170.689C141.668 170.433 141.759 170.214 141.943 170.033C142.128 169.848 142.35 169.756 142.608 169.756C142.858 169.756 143.075 169.848 143.26 170.033C143.448 170.214 143.543 170.433 143.546 170.689C143.543 170.859 143.497 171.016 143.409 171.158C143.324 171.3 143.21 171.413 143.068 171.499C142.929 171.584 142.776 171.626 142.608 171.626ZM148.347 177.166C147.645 177.166 147.043 176.989 146.54 176.634C146.04 176.276 145.655 175.76 145.385 175.087C145.118 174.411 144.985 173.597 144.985 172.645C144.988 171.693 145.123 170.884 145.39 170.216C145.66 169.545 146.045 169.034 146.545 168.682C147.047 168.33 147.648 168.153 148.347 168.153C149.046 168.153 149.647 168.33 150.15 168.682C150.653 169.034 151.037 169.545 151.305 170.216C151.574 170.886 151.709 171.696 151.709 172.645C151.709 173.599 151.574 174.415 151.305 175.091C151.037 175.764 150.653 176.278 150.15 176.634C149.65 176.989 149.049 177.166 148.347 177.166ZM148.347 175.832C148.893 175.832 149.323 175.564 149.638 175.027C149.956 174.487 150.116 173.693 150.116 172.645C150.116 171.952 150.043 171.369 149.898 170.898C149.753 170.426 149.549 170.071 149.285 169.832C149.02 169.591 148.708 169.47 148.347 169.47C147.805 169.47 147.376 169.74 147.06 170.28C146.745 170.817 146.586 171.605 146.583 172.645C146.58 173.341 146.65 173.926 146.792 174.401C146.937 174.875 147.141 175.233 147.405 175.474C147.67 175.713 147.983 175.832 148.347 175.832ZM156.351 177.166C155.649 177.166 155.047 176.989 154.544 176.634C154.044 176.276 153.659 175.76 153.389 175.087C153.122 174.411 152.989 173.597 152.989 172.645C152.992 171.693 153.127 170.884 153.394 170.216C153.664 169.545 154.048 169.034 154.548 168.682C155.051 168.33 155.652 168.153 156.351 168.153C157.05 168.153 157.651 168.33 158.154 168.682C158.656 169.034 159.041 169.545 159.308 170.216C159.578 170.886 159.713 171.696 159.713 172.645C159.713 173.599 159.578 174.415 159.308 175.091C159.041 175.764 158.656 176.278 158.154 176.634C157.654 176.989 157.053 177.166 156.351 177.166ZM156.351 175.832C156.896 175.832 157.327 175.564 157.642 175.027C157.96 174.487 158.119 173.693 158.119 172.645C158.119 171.952 158.047 171.369 157.902 170.898C157.757 170.426 157.553 170.071 157.289 169.832C157.024 169.591 156.712 169.47 156.351 169.47C155.808 169.47 155.379 169.74 155.064 170.28C154.749 170.817 154.59 171.605 154.587 172.645C154.584 173.341 154.654 173.926 154.796 174.401C154.941 174.875 155.145 175.233 155.409 175.474C155.673 175.713 155.987 175.832 156.351 175.832Z" fill="white"/>
<path d="M207.665 168.153C208.082 168.156 208.489 168.23 208.884 168.375C209.281 168.517 209.639 168.75 209.957 169.074C210.276 169.395 210.528 169.825 210.716 170.365C210.903 170.905 210.997 171.572 210.997 172.368C211 173.118 210.92 173.788 210.759 174.379C210.599 174.967 210.371 175.464 210.072 175.871C209.774 176.277 209.415 176.587 208.994 176.8C208.574 177.013 208.101 177.119 207.575 177.119C207.024 177.119 206.536 177.011 206.109 176.795C205.686 176.58 205.344 176.284 205.082 175.909C204.821 175.534 204.661 175.105 204.601 174.622H206.156C206.236 174.969 206.398 175.244 206.642 175.449C206.889 175.651 207.2 175.751 207.575 175.751C208.18 175.751 208.646 175.489 208.973 174.963C209.3 174.437 209.463 173.707 209.463 172.773H209.403C209.264 173.023 209.084 173.239 208.862 173.42C208.641 173.599 208.389 173.737 208.108 173.834C207.83 173.93 207.534 173.979 207.222 173.979C206.71 173.979 206.25 173.857 205.841 173.612C205.435 173.368 205.112 173.033 204.874 172.607C204.638 172.18 204.518 171.693 204.516 171.145C204.516 170.577 204.646 170.067 204.908 169.615C205.172 169.161 205.54 168.803 206.011 168.541C206.483 168.277 207.034 168.148 207.665 168.153ZM207.669 169.432C207.362 169.432 207.085 169.507 206.838 169.658C206.594 169.805 206.401 170.007 206.259 170.263C206.119 170.516 206.05 170.798 206.05 171.111C206.053 171.42 206.122 171.702 206.259 171.955C206.398 172.207 206.587 172.408 206.825 172.555C207.067 172.703 207.342 172.777 207.652 172.777C207.882 172.777 208.097 172.733 208.295 172.645C208.494 172.557 208.668 172.435 208.815 172.278C208.966 172.119 209.082 171.939 209.165 171.737C209.25 171.536 209.291 171.322 209.288 171.098C209.288 170.8 209.217 170.524 209.075 170.271C208.936 170.018 208.744 169.815 208.5 169.662C208.259 169.509 207.982 169.432 207.669 169.432Z" fill="white"/>
<path d="M259.472 168.273V177H257.891V169.811H257.84L255.798 171.115V169.666L257.968 168.273H259.472ZM261.688 177V175.858L264.718 172.888C265.007 172.595 265.249 172.335 265.442 172.108C265.635 171.881 265.78 171.661 265.877 171.447C265.973 171.234 266.021 171.007 266.021 170.766C266.021 170.49 265.959 170.254 265.834 170.058C265.709 169.859 265.537 169.706 265.318 169.598C265.1 169.49 264.851 169.436 264.573 169.436C264.286 169.436 264.034 169.496 263.818 169.615C263.602 169.732 263.435 169.898 263.316 170.114C263.199 170.33 263.141 170.587 263.141 170.885H261.637C261.637 170.331 261.763 169.849 262.016 169.44C262.269 169.031 262.617 168.714 263.06 168.49C263.506 168.266 264.017 168.153 264.594 168.153C265.179 168.153 265.693 168.263 266.137 168.482C266.58 168.7 266.923 169 267.168 169.381C267.415 169.761 267.539 170.196 267.539 170.685C267.539 171.011 267.476 171.332 267.351 171.648C267.226 171.963 267.006 172.312 266.691 172.696C266.378 173.08 265.939 173.544 265.374 174.089L263.869 175.619V175.679H267.671V177H261.688ZM270.108 175.952C269.85 175.952 269.628 175.861 269.443 175.679C269.259 175.494 269.168 175.273 269.171 175.014C269.168 174.759 269.259 174.54 269.443 174.358C269.628 174.176 269.85 174.085 270.108 174.085C270.358 174.085 270.575 174.176 270.76 174.358C270.948 174.54 271.043 174.759 271.046 175.014C271.043 175.187 270.997 175.345 270.909 175.487C270.824 175.629 270.71 175.743 270.568 175.828C270.429 175.911 270.276 175.952 270.108 175.952ZM270.108 171.626C269.85 171.626 269.628 171.536 269.443 171.354C269.259 171.169 269.168 170.947 269.171 170.689C269.168 170.433 269.259 170.214 269.443 170.033C269.628 169.848 269.85 169.756 270.108 169.756C270.358 169.756 270.575 169.848 270.76 170.033C270.948 170.214 271.043 170.433 271.046 170.689C271.043 170.859 270.997 171.016 270.909 171.158C270.824 171.3 270.71 171.413 270.568 171.499C270.429 171.584 270.276 171.626 270.108 171.626ZM275.847 177.166C275.145 177.166 274.543 176.989 274.04 176.634C273.54 176.276 273.155 175.76 272.885 175.087C272.618 174.411 272.485 173.597 272.485 172.645C272.488 171.693 272.623 170.884 272.89 170.216C273.16 169.545 273.545 169.034 274.045 168.682C274.547 168.33 275.148 168.153 275.847 168.153C276.546 168.153 277.147 168.33 277.65 168.682C278.153 169.034 278.537 169.545 278.805 170.216C279.074 170.886 279.209 171.696 279.209 172.645C279.209 173.599 279.074 174.415 278.805 175.091C278.537 175.764 278.153 176.278 277.65 176.634C277.15 176.989 276.549 177.166 275.847 177.166ZM275.847 175.832C276.393 175.832 276.823 175.564 277.138 175.027C277.456 174.487 277.616 173.693 277.616 172.645C277.616 171.952 277.543 171.369 277.398 170.898C277.253 170.426 277.049 170.071 276.785 169.832C276.52 169.591 276.208 169.47 275.847 169.47C275.305 169.47 274.876 169.74 274.56 170.28C274.245 170.817 274.086 171.605 274.083 172.645C274.08 173.341 274.15 173.926 274.292 174.401C274.437 174.875 274.641 175.233 274.905 175.474C275.17 175.713 275.483 175.832 275.847 175.832ZM283.851 177.166C283.149 177.166 282.547 176.989 282.044 176.634C281.544 176.276 281.159 175.76 280.889 175.087C280.622 174.411 280.489 173.597 280.489 172.645C280.492 171.693 280.627 170.884 280.894 170.216C281.164 169.545 281.548 169.034 282.048 168.682C282.551 168.33 283.152 168.153 283.851 168.153C284.55 168.153 285.151 168.33 285.654 168.682C286.156 169.034 286.541 169.545 286.808 170.216C287.078 170.886 287.213 171.696 287.213 172.645C287.213 173.599 287.078 174.415 286.808 175.091C286.541 175.764 286.156 176.278 285.654 176.634C285.154 176.989 284.553 177.166 283.851 177.166ZM283.851 175.832C284.396 175.832 284.827 175.564 285.142 175.027C285.46 174.487 285.619 173.693 285.619 172.645C285.619 171.952 285.547 171.369 285.402 170.898C285.257 170.426 285.053 170.071 284.789 169.832C284.524 169.591 284.212 169.47 283.851 169.47C283.308 169.47 282.879 169.74 282.564 170.28C282.249 170.817 282.09 171.605 282.087 172.645C282.084 173.341 282.154 173.926 282.296 174.401C282.441 174.875 282.645 175.233 282.909 175.474C283.173 175.713 283.487 175.832 283.851 175.832Z" fill="white"/>
</svg>
