<svg width="64" height="64" viewBox="0 0 64 64" fill="none" xmlns="http://www.w3.org/2000/svg">
<path d="M22.0902 36.1543H17.6443C17.2885 36.1543 17 36.4428 17 36.7986V42.4301C17 42.7859 17.2885 43.0744 17.6443 43.0744H22.0902C22.446 43.0744 22.7345 42.7859 22.7345 42.4301V36.7986C22.7345 36.4428 22.446 36.1543 22.0902 36.1543Z" fill="#1BAA5B"/>
<path d="M25.6082 22.5625C25.4373 22.5625 25.2734 22.6304 25.1526 22.7512C25.0318 22.8721 24.9639 23.0359 24.9639 23.2068V36.3215C24.9639 36.4924 25.0318 36.6563 25.1526 36.7772C25.2734 36.898 25.4373 36.9659 25.6082 36.9659H30.0669C30.2378 36.9659 30.4017 36.898 30.5226 36.7772C30.6434 36.6563 30.7112 36.4924 30.7112 36.3215V23.2068C30.7112 23.0359 30.6434 22.8721 30.5226 22.7512C30.4017 22.6304 30.2378 22.5625 30.0669 22.5625H25.6082Z" fill="#1BAA5B"/>
<path d="M46.3558 17H41.91C41.5541 17 41.2656 17.3046 41.2656 17.6803V36.2862C41.2656 36.662 41.5541 36.9665 41.91 36.9665H46.3558C46.7117 36.9665 47.0001 36.662 47.0001 36.2862V17.6803C47.0001 17.3046 46.7117 17 46.3558 17Z" fill="#1BAA5B"/>
<path d="M33.9324 22.5625C33.7615 22.5625 33.5976 22.6304 33.4768 22.7512C33.356 22.8721 33.2881 23.0359 33.2881 23.2068V46.3554C33.2881 46.5263 33.356 46.6902 33.4768 46.811C33.5976 46.9319 33.7615 46.9998 33.9324 46.9998H38.3912C38.5621 46.9998 38.7259 46.9319 38.8468 46.811C38.9676 46.6902 39.0355 46.5263 39.0355 46.3554V32.0179L39.0355 32.0104V23.2068C39.0355 23.0359 38.9676 22.8721 38.8468 22.7512C38.7259 22.6304 38.562 22.5625 38.3911 22.5625H33.9324Z" fill="#1BAA5B"/>
</svg>
