<svg width="64" height="64" viewBox="0 0 64 64" fill="none" xmlns="http://www.w3.org/2000/svg">
<g clip-path="url(#clip0_1366_151310)">
<path d="M38.7929 34.2071C39.1834 33.8166 39.8166 33.8166 40.2071 34.2071L45.2929 39.2928C45.9228 39.9228 45.4766 41 44.5857 41L34.4143 41C33.5234 41 33.0772 39.9228 33.7071 39.2929L38.7929 34.2071Z" fill="#00BE40"/>
<path fill-rule="evenodd" clip-rule="evenodd" d="M37.5 36.5C36.9477 36.5 36.5 36.9477 36.5 37.5V43.5861C36.5 43.8513 36.6054 44.1056 36.7929 44.2932L39.2068 46.707C39.3943 46.8946 39.6487 46.9999 39.9139 46.9999H41.5C42.0522 46.9999 42.5 46.5522 42.5 45.9999V37.5C42.5 36.9477 42.0523 36.5 41.5 36.5H37.5Z" fill="#00BE40"/>
<path d="M32.7929 17.7071C33.1834 17.3166 33.8166 17.3166 34.2071 17.7071L39.2928 22.7928C39.9228 23.4228 39.4766 24.5 38.5857 24.5H28.4143C27.5234 24.5 27.0772 23.4228 27.7072 22.7929L32.7929 17.7071Z" fill="#00BE40"/>
<path d="M23.7929 29.7071C24.1834 29.3166 24.8166 29.3166 25.2071 29.7071L30.2928 34.7928C30.9228 35.4228 30.4766 36.5 29.5857 36.5L19.4143 36.5C18.5234 36.5 18.0772 35.4228 18.7071 34.7929L23.7929 29.7071Z" fill="#00BE40"/>
<path fill-rule="evenodd" clip-rule="evenodd" d="M31.5 23C30.9477 23 30.5 23.4477 30.5 24V30.0861C30.5 30.3513 30.6054 30.6056 30.7929 30.7932L33.2068 33.207C33.3943 33.3946 33.6487 33.4999 33.9139 33.4999H35.5C36.0523 33.4999 36.5 33.0522 36.5 32.4999V24C36.5 23.4477 36.0523 23 35.5 23H31.5Z" fill="#00BE40"/>
<path fill-rule="evenodd" clip-rule="evenodd" d="M22.5 32C21.9477 32 21.5 32.4477 21.5 33V39.0861C21.5 39.3513 21.6054 39.6056 21.7929 39.7932L24.2068 42.207C24.3943 42.3946 24.6487 42.4999 24.9139 42.4999H26.5C27.0522 42.4999 27.5 42.0522 27.5 41.4999V33C27.5 32.4477 27.0523 32 26.5 32H22.5Z" fill="#00BE40"/>
</g>
<defs>
<clipPath id="clip0_1366_151310">
<rect width="29.9998" height="29.9998" fill="white" transform="translate(17 17)"/>
</clipPath>
</defs>
</svg>
