<svg width="64" height="64" viewBox="0 0 64 64" fill="none" xmlns="http://www.w3.org/2000/svg">
<path d="M37.4535 43.4526C37.4598 43.5848 37.434 43.7167 37.3777 43.84C37.3214 43.9633 37.2358 44.0755 37.1264 44.1694C36.9025 44.3592 36.5996 44.4663 36.2835 44.4673H18.1701C18.0148 44.4666 17.8611 44.4398 17.718 44.3883C17.5749 44.3368 17.4452 44.2617 17.3365 44.1673C17.2277 44.073 17.1419 43.9613 17.0842 43.8386C17.0265 43.7159 16.9979 43.5847 17.0001 43.4526C17.0521 41.175 18.1523 39.0056 20.0646 37.4105C21.9768 35.8154 24.5484 34.9219 27.2268 34.9219C29.9053 34.9219 32.4768 35.8154 34.3891 37.4105C36.3013 39.0056 37.4016 41.175 37.4535 43.4526V43.4526Z" fill="#00BE40"/>
<path d="M22.4541 27.7905C22.4552 26.847 22.736 25.925 23.2609 25.1409C23.7858 24.3569 24.5313 23.7461 25.4032 23.3856C26.2752 23.0251 27.2344 22.9311 28.1597 23.1155C29.085 23.2999 29.9349 23.7545 30.602 24.4217C31.2691 25.089 31.7234 25.939 31.9077 26.8643C32.0919 27.7897 31.9977 28.7489 31.637 29.6208C31.2762 30.4926 30.6652 31.238 29.881 31.7628C29.0969 32.2875 28.1748 32.568 27.2313 32.5689C25.9644 32.568 24.7496 32.0643 23.8539 31.1683C22.9582 30.2724 22.4547 29.0575 22.4541 27.7905V27.7905Z" fill="#00BE40"/>
<path d="M34.1494 29.7058C34.1494 28.8447 34.413 28.003 34.907 27.2869C35.4009 26.5708 36.103 26.0124 36.9246 25.6824C37.7461 25.3523 38.6503 25.2653 39.5229 25.4324C40.3956 25.5995 41.1974 26.0132 41.8273 26.6212C42.4571 27.2293 42.8867 28.0043 43.0618 28.8486C43.2368 29.6928 43.1495 30.5684 42.8108 31.3646C42.4721 32.1608 41.8972 32.842 41.1588 33.3221C40.4204 33.8022 39.5516 34.0598 38.6621 34.0622C37.4679 34.0606 36.3229 33.6014 35.4774 32.7852C34.6318 31.9689 34.1544 30.8618 34.1494 29.7058V29.7058Z" fill="#00BE40"/>
<path d="M47.0002 44.0171C47.0019 44.1783 46.9708 44.3382 46.9086 44.4877C46.8464 44.6372 46.7543 44.7734 46.6377 44.8884C46.5219 45.0027 46.3838 45.0936 46.2315 45.156C46.0791 45.2183 45.9156 45.2507 45.7502 45.2514H39.2499C39.3812 44.8736 39.4406 44.4759 39.4249 44.0776C39.3718 41.3484 38.3575 38.7187 36.5498 36.6237C37.7508 36.2779 39.018 36.2053 40.2528 36.4117C41.4875 36.6181 42.6562 37.0978 43.6678 37.8135C44.6794 38.5291 45.5065 39.4614 46.0845 40.5375C46.6626 41.6136 46.976 42.8044 47.0002 44.0171Z" fill="#00BE40"/>
</svg>
