<svg width="64" height="64" viewBox="0 0 64 64" fill="none" xmlns="http://www.w3.org/2000/svg">
<path d="M21.6769 47H42.3229H42.3367C43.5741 46.9954 44.7594 46.5029 45.6333 45.6304C46.5072 44.7578 46.9985 43.5761 46.9998 42.3437V31.2727C46.9998 30.9424 46.8681 30.6257 46.6335 30.3921C46.399 30.1586 46.081 30.0274 45.7493 30.0274H40.147V18.2453C40.147 17.915 40.0153 17.5983 39.7807 17.3647C39.5462 17.1312 39.2281 17 38.8965 17H18.2505C17.9189 17 17.6008 17.1312 17.3662 17.3647C17.1317 17.5983 17 17.915 17 18.2453V42.3425C16.9998 42.9542 17.1207 43.5599 17.3557 44.125C17.5907 44.6902 17.9351 45.2037 18.3695 45.6362C18.8038 46.0687 19.3194 46.4118 19.8869 46.6458C20.4544 46.8798 21.0627 47.0002 21.6769 47ZM40.147 32.5156H44.4988V42.3412C44.4985 42.9156 44.2693 43.4664 43.8616 43.8726C43.4538 44.2789 42.9009 44.5074 42.3241 44.5081C41.7489 44.5019 41.1989 44.2717 40.7919 43.8667C40.385 43.4617 40.1535 42.9141 40.147 42.3412V32.5156ZM22.8649 21.9813H33.7819C34.1135 21.9813 34.4316 22.1125 34.6661 22.3461C34.9007 22.5796 35.0324 22.8964 35.0324 23.2267C35.0324 23.5569 34.9007 23.8737 34.6661 24.1072C34.4316 24.3408 34.1135 24.472 33.7819 24.472H22.8649C22.5332 24.472 22.2152 24.3408 21.9806 24.1072C21.7461 23.8737 21.6144 23.5569 21.6144 23.2267C21.6144 22.8964 21.7461 22.5796 21.9806 22.3461C22.2152 22.1125 22.5332 21.9813 22.8649 21.9813ZM22.8649 27.8219H33.7819C34.1135 27.8219 34.4316 27.9531 34.6661 28.1867C34.9007 28.4202 35.0324 28.737 35.0324 29.0673C35.0324 29.3975 34.9007 29.7143 34.6661 29.9478C34.4316 30.1814 34.1135 30.3126 33.7819 30.3126H22.8649C22.5332 30.3126 22.2152 30.1814 21.9806 29.9478C21.7461 29.7143 21.6144 29.3975 21.6144 29.0673C21.6144 28.737 21.7461 28.4202 21.9806 28.1867C22.2152 27.9531 22.5332 27.8219 22.8649 27.8219ZM22.8649 33.675H33.7819C34.1135 33.675 34.4316 33.8062 34.6661 34.0397C34.9007 34.2733 35.0324 34.59 35.0324 34.9203C35.0324 35.2506 34.9007 35.5673 34.6661 35.8009C34.4316 36.0344 34.1135 36.1656 33.7819 36.1656H22.8649C22.5332 36.1656 22.2152 36.0344 21.9806 35.8009C21.7461 35.5673 21.6144 35.2506 21.6144 34.9203C21.6144 34.59 21.7461 34.2733 21.9806 34.0397C22.2152 33.8062 22.5332 33.675 22.8649 33.675ZM22.8649 39.528H33.7819C34.1135 39.528 34.4316 39.6592 34.6661 39.8928C34.9007 40.1263 35.0324 40.4431 35.0324 40.7733C35.0324 41.1036 34.9007 41.4204 34.6661 41.6539C34.4316 41.8875 34.1135 42.0187 33.7819 42.0187H22.8649C22.5332 42.0187 22.2152 41.8875 21.9806 41.6539C21.7461 41.4204 21.6144 41.1036 21.6144 40.7733C21.6144 40.4431 21.7461 40.1263 21.9806 39.8928C22.2152 39.6592 22.5332 39.528 22.8649 39.528Z" fill="#00BE40"/>
</svg>
