<svg width="64" height="64" viewBox="0 0 64 64" fill="none" xmlns="http://www.w3.org/2000/svg">
<path fill-rule="evenodd" clip-rule="evenodd" d="M41.1428 24.979C41.7864 24.3526 42.6583 23.9993 43.5685 23.9961L43.5647 23.9912C44.4566 23.9895 45.3141 24.3261 45.9551 24.9296C46.5962 25.5331 46.9703 26.356 46.9982 27.2236C47.026 28.0913 46.7053 28.9353 46.1042 29.5766C45.503 30.2178 44.6688 30.6058 43.7785 30.6582V30.6691L41.9207 41.1006C41.9004 41.1901 41.8732 41.3538 41.8395 41.5567C41.7238 42.2527 41.5316 43.4092 41.2799 43.6062C40.9548 43.8607 40.5503 43.9996 40.1332 44H24.4554C24.0383 43.9996 23.6338 43.8607 23.3087 43.6062C23.0569 43.4091 22.8643 42.2517 22.7484 41.5558C22.7147 41.3534 22.6875 41.19 22.6673 41.1006L20.4744 30.6813H20.4231C19.7455 30.6801 19.0834 30.4835 18.5205 30.1164C17.9575 29.7493 17.5189 29.2281 17.2601 28.6186C17.0012 28.0091 16.9337 27.3386 17.066 26.6918C17.1983 26.045 17.5246 25.4508 18.0036 24.9843C18.4825 24.5178 19.0928 24.1998 19.7573 24.0705C20.4218 23.9413 21.1107 24.0065 21.7371 24.258C22.3635 24.5095 22.8993 24.936 23.2769 25.4837C23.6545 26.0313 23.857 26.6755 23.8587 27.335C23.8558 27.9183 23.6945 28.4905 23.3911 28.9936L23.4011 29.0021L25.9016 31.4601L29.8398 25.8262L29.8485 25.814C29.4879 25.5054 29.1986 25.1259 28.9997 24.7006C28.8008 24.2752 28.6968 23.8136 28.6946 23.3463C28.6946 22.4588 29.0568 21.6077 29.7016 20.9801C30.3463 20.3526 31.2209 20 32.1327 20C33.0445 20 33.919 20.3526 34.5638 20.9801C35.2086 21.6077 35.5708 22.4588 35.5708 23.3463C35.5694 23.8178 35.4643 24.2836 35.2627 24.7124C35.0611 25.1411 34.7676 25.523 34.4019 25.8323L34.4094 25.8432L38.3475 31.465L40.6855 29.153V29.1457C40.3255 28.6085 40.1336 27.9812 40.1329 27.3399C40.1362 26.4541 40.4992 25.6054 41.1428 24.979ZM31.9999 39.5C33.6568 39.5 34.9999 38.1569 34.9999 36.5C34.9999 34.8431 33.6568 33.5 31.9999 33.5C30.3431 33.5 28.9999 34.8431 28.9999 36.5C28.9999 38.1569 30.3431 39.5 31.9999 39.5Z" fill="#00BE40"/>
</svg>
