<svg width="112" height="88" viewBox="0 0 112 88" fill="none" xmlns="http://www.w3.org/2000/svg">
<path d="M43.7535 0C21.8767 6.83179 0 26.3512 0 55.6303C0 74.1738 9.39889 88 24.9557 88C39.8643 88 47.9668 74.9871 47.9668 59.3715C33.5443 58.2329 23.9834 49.9371 23.9834 37.5749C23.9834 25.2126 34.5166 15.6155 48.4529 10.4104L43.7535 0ZM107.301 0C85.4238 6.83179 63.5471 26.3512 63.5471 55.6303C63.5471 74.1738 72.946 88 88.5028 88C103.411 88 111.514 74.9871 111.514 59.3715C97.0914 58.2329 87.5305 49.9371 87.5305 37.5749C87.5305 25.2126 98.0637 15.6155 112 10.4104L107.301 0Z" fill="#EDF9F6"/>
</svg>
